# xmcd
#
# Track frame offsets:
# 150
# 13871
# 33199
# 53035
# 68836
# 73795
# 81000
# 97452
# 109431
# 119393
# 123103
# 133671
# 143695
# 155689
# 179197
# 199216
# 219273
# 234764
# 251168
# 254850
#
# Disc length: 3610 seconds
#
#
# Revision: 0
# Processed by: cddbd v1.5.2PL0 Copyright (c) Steve Scherf et al.
# Submitted via: FreeRIP 2.96 
#
DISCID=330e1814
DTITLE=Sebastian Fitzek - Splitter
DYEAR=2009
DGENRE=Speech
TTITLE0=42 Splitter
TTITLE1=43 Splitter
TTITLE2=44 Splitter
TTITLE3=45 Splitter
TTITLE4=46 Splitter
TTITLE5=47 Splitter
TTITLE6=48 Splitter
TTITLE7=49 Splitter
TTITLE8=50 Splitter
TTITLE9=51 Splitter
TTITLE10=52 Splitter
TTITLE11=53 Splitter
TTITLE12=54 Splitter
TTITLE13=55 Splitter
TTITLE14=56 Splitter
TTITLE15=57 Splitter
TTITLE16=58 Splitter
TTITLE17=59 Splitter
TTITLE18=60 Splitter
TTITLE19=61 Splitter
EXTD=gelesen von Simon Jäger
EXTT0=
EXTT1=
EXTT2=
EXTT3=
EXTT4=
EXTT5=
EXTT6=
EXTT7=
EXTT8=
EXTT9=
EXTT10=
EXTT11=
EXTT12=
EXTT13=
EXTT14=
EXTT15=
EXTT16=
EXTT17=
EXTT18=
EXTT19=
PLAYORDER=
